<?xml version="1.0" standalone="no"?>
<!DOCTYPE svg PUBLIC "-//W3C//DTD SVG 20010904//EN"
 "http://www.w3.org/TR/2001/REC-SVG-20010904/DTD/svg10.dtd">
<svg version="1.0" xmlns="http://www.w3.org/2000/svg"
 width="340.000000pt" height="239.000000pt" viewBox="0 0 340.000000 239.000000"
 preserveAspectRatio="xMidYMid meet">

<g transform="translate(0.000000,239.000000) scale(0.100000,-0.100000)"
stroke="none">
<path d="M1545 2259 c-171 -25 -380 -114 -525 -223 -295 -221 -486 -560 -550
-976 -14 -95 -12 -294 5 -374 32 -152 129 -288 253 -354 122 -65 95 -63 971
-62 635 1 800 4 826 14 36 16 211 238 200 255 -4 8 -108 11 -316 11 l-311 0
30 30 c17 16 35 45 42 64 l11 33 147 6 c132 5 150 4 172 -12 60 -43 116 -65
166 -65 60 0 96 20 126 70 12 20 36 41 57 50 19 8 46 25 59 37 31 29 66 97 55
108 -4 4 -30 9 -58 11 l-50 3 -5 70 c-9 116 -54 165 -148 165 -91 0 -135 -57
-156 -205 l-11 -80 -163 -3 -162 -2 0 24 c0 35 -28 115 -52 149 -27 37 -72 59
-123 59 -117 0 -193 -110 -219 -317 -11 -87 -16 -99 -44 -128 l-32 -32 -448 0
-447 0 -51 27 c-70 37 -130 108 -151 177 -23 81 -14 225 20 309 69 169 170
237 383 257 l71 7 79 85 c145 159 284 253 424 286 68 16 407 26 863 27 l218 0
-33 47 c-51 72 -184 208 -257 262 -126 94 -286 160 -446 186 -98 16 -322 18
-420 4z"/>
<path d="M1601 1560 c-71 -26 -145 -71 -215 -131 -62 -52 -111 -107 -104 -114
3 -3 316 -4 697 -3 l692 3 -68 68 c-85 84 -161 138 -238 168 -58 23 -71 23
-385 26 -304 3 -329 2 -379 -17z"/>
<path d="M816 1093 c-37 -40 -66 -116 -66 -172 1 -71 57 -154 125 -182 44 -18
739 -26 760 -9 20 16 20 102 0 140 -32 61 -50 64 -375 70 -343 6 -323 -3 -271
119 l30 71 -85 0 -85 0 -33 -37z"/>
</g>
</svg>
